<mxfile host="app.diagrams.net" modified="2024-04-30T08:40:23.889Z" agent="Mozilla/5.0 (Macintosh; Intel Mac OS X 10_15_7) AppleWebKit/537.36 (KHTML, like Gecko) Chrome/124.0.0.0 Safari/537.36" version="24.3.1" etag="ZmbhY_8oOJBanz7XvR66" type="github">
  <diagram name="Page-1" id="Ln5rL9Pv53ZSZR1Iqvrz">
    <mxGraphModel>
      <root>
        <mxCell id="0" />
        <mxCell id="1" parent="0" />
      </root>
    </mxGraphModel>
  </diagram>
</mxfile>
